<?xml version="1.0" encoding="utf-8"?>
<!-- Generator: Adobe Illustrator 15.1.0, SVG Export Plug-In . SVG Version: 6.00 Build 0)  -->
<!DOCTYPE svg PUBLIC "-//W3C//DTD SVG 1.1//EN" "http://www.w3.org/Graphics/SVG/1.1/DTD/svg11.dtd">
<svg version="1.1" id="Layer_1" xmlns="http://www.w3.org/2000/svg" xmlns:xlink="http://www.w3.org/1999/xlink" x="0px" y="0px"
	 width="874.481px" height="55.175px" viewBox="0 0 874.481 55.175" enable-background="new 0 0 874.481 55.175"
	 xml:space="preserve">
<path fill="#F1BE48" d="M31.018,0c7.809,0,16.567,4.598,16.567,14.889c0,6.642-3.138,10.875-3.138,10.875s4.379,3.795,4.379,10.729
	c0,11.239-4.671,18.246-17.808,18.246H12.553c0,0-12.553,0.146-12.553-10.072V11.021C0,11.021,0,0.073,11.75,0H31.018z"/>
<path fill="#F1BE48" d="M77.799,11.312c0-6.714,5.912-11.75,11.75-11.75c6.714,0,11.75,5.036,11.75,11.75c0,0.803,0,20.581,0,20.581
	c0,13.429-10.875,23.5-23.5,23.5c-13.429,0-23.5-10.071-23.5-23.5V11.312c0-6.714,5.036-11.75,10.947-11.75
	c6.714,0,11.75,5.036,11.75,11.75H77.799z"/>
<path fill="#F1BE48" d="M107.139,11.312c0-6.714,5.036-11.75,11.75-11.75s11.75,5.036,11.75,11.75v32.112
	c0,6.714-5.036,11.75-11.75,11.75s-11.75-5.036-11.75-11.75V11.312z"/>
<path fill="#F1BE48" d="M168.298,35.397c5.036,0,9.196,4.233,9.196,10.071c0,5.839-4.16,9.269-9.196,9.269H145.6
	c-5.036,0-9.196-4.233-9.196-9.269V8.831c0-5.109,5.182-9.269,10.217-9.269c5.912,0,10.072,4.233,10.072,9.269
	c0,0.803,0,0.803,0,0.803v25.763H168.298z"/>
<path fill="#F1BE48" d="M181.29,10.948C181.29,5.036,185.376,0,191.361,0h14.232c6.714,0,25.179,1.752,25.179,27.369
	c0,25.617-18.465,27.369-25.179,27.369h-13.429l-0.803-0.073c-5.912,0-10.071-5.036-10.071-10.072V10.948z"/>
<path fill="#FFFFFF" d="M242.887,38.754c5.474,0,8.758,3.284,8.758,8.758c0,5.474-3.284,7.663-8.758,7.663s-8.758-2.189-8.758-7.663
	C234.128,42.038,237.413,38.754,242.887,38.754z"/>
<path fill="#1B365D" d="M300.47,27.296c0,4.16-2.481,8.32-6.642,9.196c3.357,0.875,6.642,4.963,6.642,9.05
	c0,5.838-4.16,9.196-9.123,9.196h-24.96c0,0-10.729,0-10.729-9.999v-34.01c0,0,0-10.729,10.729-10.729h24.96
	c4.963,0,9.123,4.087,9.123,9.926c0,4.16-3.285,7.444-6.642,8.32C297.988,19.122,300.47,23.136,300.47,27.296z"/>
<path fill="#1B365D" d="M331.706,3.722c1.68-2.481,4.234-4.16,7.59-4.16c5.84,0,10.072,4.16,10.072,9.196
	c0,1.678-0.656,3.503-1.678,5.036l-8.395,12.699l8.395,13.575c1.24,2.043,1.678,3.357,1.678,5.036
	c0,5.839-4.232,10.072-9.268,10.072c-3.357,0-6.934-1.533-8.395-4.233l-4.16-7.444l-4.086,7.444c-1.461,2.7-5.037,4.233-8.393,4.233
	c-5.037,0-9.27-4.233-9.27-10.072c0-1.679,0.438-2.992,1.678-5.036l8.395-13.575l-8.395-12.699
	c-1.021-1.533-1.678-3.357-1.678-5.036c0-5.036,4.232-9.196,10.072-9.196c3.357,0,5.91,1.678,7.59,4.16l4.086,5.912L331.706,3.722z"
	/>
<path fill="#1B365D" d="M354.769,10.072c0-5.838,4.16-10.072,10.072-10.072h15.107c10.875,0,19.268,8.393,19.268,18.465
	c0,10.947-6.715,19.34-19.268,19.34h-4.232v7.298c0,5.839-5.037,10.072-10.875,10.072c-5.035,0-10.072-4.233-10.072-10.072V10.072z"
	/>
<path fill="#1B365D" d="M435.124,35.397c5.035,0,9.195,4.233,9.195,10.071c0,5.839-4.16,9.269-9.195,9.269h-22.697
	c-5.037,0-9.197-4.233-9.197-9.269V8.831c0-5.109,5.184-9.269,10.219-9.269c5.912,0,10.072,4.233,10.072,9.269
	c0,0.803,0,0.803,0,0.803v25.763H435.124z"/>
<path fill="#1B365D" d="M472.856-0.583c15.398,0,28.463,12.042,28.463,28.317c0,15.545-13.064,27.587-28.463,27.587
	c-15.547,0-28.391-12.042-28.391-27.587C444.466,11.458,457.31-0.583,472.856-0.583z"/>
<path fill="#1B365D" d="M552.991,40.36c0.584,0.949,1.094,2.7,1.094,4.744c0,5.839-4.598,10.072-10.873,10.072
	c-2.92,0-5.4-1.387-6.715-3.357l-8.393-12.626v5.912c0,5.036-5.037,10.072-10.947,10.072c-5.84,0-10.875-5.036-10.875-10.072V10.875
	c0,0,0-10.875,10.875-10.875h17.662c3.867,0,18.463,1.241,18.463,17.151c0,9.342-5.91,13.647-5.91,13.647L552.991,40.36z"/>
<path fill="#1B365D" d="M602.765,27.296c0,4.16-2.48,8.32-6.641,9.196c3.357,0.875,6.641,4.963,6.641,9.05
	c0,5.838-4.16,9.196-9.123,9.196h-24.959c0,0-10.729,0-10.729-9.999v-34.01c0,0,0-10.729,10.729-10.729h24.959
	c4.963,0,9.123,4.087,9.123,9.926c0,4.16-3.283,7.444-6.641,8.32C600.284,19.122,602.765,23.136,602.765,27.296z"/>
<path fill="#FFFFFF" d="M615.245,38.754c5.475,0,8.758,3.284,8.758,8.758c0,5.474-3.283,7.663-8.758,7.663
	c-5.473,0-8.758-2.189-8.758-7.663C606.487,42.038,609.772,38.754,615.245,38.754z"/>
<path fill="#FF8200" d="M659.911,35.397c5.035,0,9.195,4.233,9.195,10.071c0,5.839-4.16,9.269-9.195,9.269h-22.697
	c-5.037,0-9.197-4.233-9.197-9.269V8.831c0-5.109,5.184-9.269,10.219-9.269c5.912,0,10.072,4.233,10.072,9.269
	c0,0.803,0,0.803,0,0.803v25.763H659.911z"/>
<path fill="#FF8200" d="M717.714,27.296c0,4.16-2.482,8.32-6.643,9.196c3.357,0.875,6.643,4.963,6.643,9.05
	c0,5.838-4.16,9.196-9.123,9.196H683.63c0,0-10.729,0-10.729-9.999v-34.01c0,0,0-10.729,10.729-10.729h24.961
	c4.963,0,9.123,4.087,9.123,9.926c0,4.16-3.285,7.444-6.643,8.32C715.231,19.122,717.714,23.136,717.714,27.296z"/>
<path fill="#FF8200" d="M732.677,55.175c-2.92,0-5.182-1.168-5.182-1.168c-4.672-2.773-5.693-6.641-5.693-9.488
	c0-2.262,0.658-3.941,0.658-3.941l13.428-33.572c1.533-3.941,4.232-7.517,11.75-7.517c7.59,0,9.197,3.211,10.947,7.517l13.43,33.572
	c0.656,1.679,0.803,3.211,0.803,4.525c0,6.642-5.838,8.904-5.838,8.904c-1.898,0.73-3.576,1.095-5.037,1.095
	c-8.32,0-10.07-10.291-10.07-10.291h-8.395C741.069,53.278,736.399,55.175,732.677,55.175z"/>
<path fill="#FF8200" d="M823.321,40.36c0.584,0.949,1.094,2.7,1.094,4.744c0,5.839-4.598,10.072-10.873,10.072
	c-2.92,0-5.4-1.387-6.715-3.357l-8.393-12.626v5.912c0,5.036-5.037,10.072-10.947,10.072c-5.84,0-10.875-5.036-10.875-10.072V10.875
	c0,0,0-10.875,10.875-10.875h17.662c3.867,0,18.463,1.241,18.463,17.151c0,9.342-5.91,13.647-5.91,13.647L823.321,40.36z"/>
<path fill="#FF8200" d="M874.481,45.833c0,5.109-4.16,9.342-10.07,9.342c-3.357,0-6.787-1.606-8.395-4.16l-7.59-11.75v6.714
	c0,5.036-5.035,9.196-10.07,9.196c-5.84,0-10.072-4.16-10.072-9.196V8.758c0-5.036,5.035-9.196,10.072-9.196
	c3.357,0,6.641,1.678,8.393,4.16l7.59,10.948V9.634c0-5.912,4.16-10.071,10.072-10.071c5.838,0,10.07,4.16,10.07,10.071V45.833z"/>
</svg>
